Coordinates
version=1
nRows=17
nColumns=40
inDegrees=yes

Units are S.I. units (second, meters, Newtons, ...)
If the header above contains a line with 'inDegrees', this indicates whether rotational values are in degrees (yes) or radians (no).

endheader
time	pelvis_tilt	pelvis_list	pelvis_rotation	pelvis_tx	pelvis_ty	pelvis_tz	hip_flexion_r	hip_adduction_r	hip_rotation_r	knee_angle_r	knee_angle_r_beta	ankle_angle_r	subtalar_angle_r	mtp_angle_r	hip_flexion_l	hip_adduction_l	hip_rotation_l	knee_angle_l	knee_angle_l_beta	ankle_angle_l	subtalar_angle_l	mtp_angle_l	lumbar_extension	lumbar_bending	lumbar_rotation	arm_flex_r	arm_add_r	arm_rot_r	elbow_flex_r	pro_sup_r	wrist_flex_r	wrist_dev_r	arm_flex_l	arm_add_l	arm_rot_l	elbow_flex_l	pro_sup_l	wrist_flex_l	wrist_dev_l
      5.20000000	     27.92452997	      3.30515910	      2.79040656	      0.01645428	      1.33214077	     -0.00606228	      0.02015156	     -8.71890036	    -12.16725671	     30.34832432	      0.52967818	    -17.75701512	    -20.85412439	      0.00000000	     42.11257498	      4.09991975	      6.99951195	    104.83354112	      1.82969046	    -15.90611618	    -27.90576153	      0.00000000	    -76.37920327	      7.38691348	     -0.09242251	     38.22219203	     -8.33792688	    -25.18346207	     49.95607604	     50.46971552	      0.00000000	      0.00000000	     46.82551018	     14.45727094	    -21.61133542	     48.33204360	     42.67563729	      0.00000000	      0.00000000
      5.21700000	     27.99377562	      3.16786814	      2.83168143	      0.01620710	      1.33220671	     -0.00611239	     -0.63453765	     -8.39719132	    -12.53645641	     31.18002316	      0.54419406	    -17.91355582	    -21.09035650	      0.00000000	     43.24686257	      4.30966810	      6.86096819	    104.31798840	      1.82069237	    -16.71881656	    -28.14285646	      0.00000000	    -76.52276244	      7.40408215	     -0.01335156	     38.20738904	     -8.37926793	    -25.15780686	     49.96754742	     50.36501238	      0.00000000	      0.00000000	     46.67332172	     14.69456245	    -21.77733549	     48.65346518	     42.58255827	      0.00000000	      0.00000000
      5.23300000	     28.12084832	      3.01783948	      2.65671918	      0.01599078	      1.33247902	     -0.00590493	     -0.97779099	     -8.15843089	    -12.71055375	     32.63269078	      0.56954790	    -17.72840777	    -21.21117634	      0.00000000	     44.02857748	      4.31801316	      6.56069718	    103.43475352	      1.80527701	    -17.29925028	    -28.18647988	      0.00000000	    -76.75270408	      7.22417617	      0.12005811	     38.23592555	     -8.43137170	    -25.07074919	     49.97679395	     50.25088025	      0.00000000	      0.00000000	     46.58594845	     14.89696177	    -21.90382488	     48.90303015	     42.58214367	      0.00000000	      0.00000000
      5.25000000	     28.28295771	      2.72240324	      2.56219626	      0.01584611	      1.33299660	     -0.00573640	     -1.13283350	     -7.86699490	    -13.03566838	     34.38460172	      0.60012451	    -17.76952343	    -21.10200563	      0.00000000	     44.43225532	      4.15992977	      6.45078251	    102.21936339	      1.78406445	    -17.30593383	    -28.00431257	      0.00000000	    -77.04188465	      7.17574907	      0.40802515	     38.30937285	     -8.48566973	    -25.03973584	     49.96017963	     50.22118121	      0.00000000	      0.00000000	     46.56188082	     15.02393451	    -21.89693486	     49.05993845	     42.58282470	      0.00000000	      0.00000000
      5.26700000	     28.39736460	      2.57253768	      2.35372378	      0.01576259	      1.33356491	     -0.00541655	     -0.90842459	     -7.82266861	    -13.26071730	     36.75029078	      0.64141358	    -17.00579331	    -21.36756525	      0.00000000	     44.51677917	      3.97589782	      6.10379825	    100.47992826	      1.75370558	    -17.45011958	    -28.24987148	      0.00000000	    -77.29287142	      6.96189264	      0.60810985	     38.38911536	     -8.55558409	    -25.00347241	     49.96869827	     50.15924331	      0.00000000	      0.00000000	     46.69338157	     15.20416232	    -22.07244495	     49.06743043	     42.62679033	      0.00000000	      0.00000000
      5.28300000	     28.59055405	      2.13464677	      2.30799511	      0.01585265	      1.33440055	     -0.00537988	     -0.58655873	     -7.60777556	    -13.74391533	     39.27491415	      0.68547657	    -17.03558968	    -21.21188730	      0.00000000	     44.19106397	      3.61466554	      6.13608750	     98.45084606	      1.71829142	    -17.05221950	    -28.22993385	      0.00000000	    -77.64322834	      7.02973035	      1.04505877	     38.54798037	     -8.60373160	    -24.98562498	     49.91616203	     50.13748122	      0.00000000	      0.00000000	     46.77196772	     15.27572004	    -22.07557021	     49.10980620	     42.65258431	      0.00000000	      0.00000000
      5.30000000	     28.68422240	      2.00882407	      2.06359407	      0.01590947	      1.33504697	     -0.00503154	      0.15118652	     -7.76819902	    -13.91019888	     42.41179003	      0.74022538	    -15.96424484	    -21.48417345	      0.00000000	     43.60684728	      3.28876046	      5.73963602	     96.07384513	      1.67680492	    -16.50119516	    -28.39922742	      0.00000000	    -77.85213489	      6.77516567	      1.27132143	     38.65097510	     -8.69665001	    -24.95657250	     49.86216119	     50.09438900	      0.00000000	      0.00000000	     47.01269237	     15.43207204	    -22.25404308	     48.91493430	     42.73416748	      0.00000000	      0.00000000
      5.31700000	     28.75326331	      1.82489630	      1.80300486	      0.01600287	      1.33579009	     -0.00477870	      1.10761471	     -7.97240935	    -13.95272143	     45.68895781	      0.79742275	    -15.43058297	    -21.08560087	      0.00000000	     42.69702162	      2.84648915	      5.32390779	     93.37650930	      1.62972753	    -15.89729135	    -28.71440836	      0.00000000	    -78.04994617	      6.54937055	      1.52043321	     38.76473939	     -8.71816945	    -24.96434210	     49.85927949	     49.99910954	      0.00000000	      0.00000000	     47.16123739	     15.52101607	    -22.40546829	     48.88704173	     43.02394402	      0.00000000	      0.00000000
      5.33300000	     28.93466041	      1.47891980	      1.84660494	      0.01617126	      1.33662997	     -0.00480270	      2.02221209	     -8.00727681	    -14.32252368	     49.11493430	      0.85721732	    -14.96784473	    -21.30602186	      0.00000000	     41.37948961	      2.38816214	      5.23673373	     90.43537145	      1.57839499	    -14.97514965	    -28.82122593	      0.00000000	    -78.33042867	      6.65473543	      1.86511106	     38.89720936	     -8.77128252	    -24.90862695	     49.77446195	     49.98898005	      0.00000000	      0.00000000	     47.31965284	     15.60158343	    -22.55393226	     48.81798257	     43.12177362	      0.00000000	      0.00000000
      5.35000000	     29.06800928	      1.21151176	      1.76528924	      0.01631163	      1.33739058	     -0.00477365	      3.20870303	     -8.20501374	    -14.47887117	     52.73088874	      0.92032763	    -14.62133610	    -21.32525456	      0.00000000	     39.86270221	      1.89555798	      5.01911070	     87.30575048	      1.52377280	    -14.09466753	    -28.76286589	      0.00000000	    -78.53972458	      6.63429753	      2.14379465	     39.02932055	     -8.80724900	    -24.85328833	     49.70719325	     49.97386235	      0.00000000	      0.00000000	     47.46795557	     15.64942686	    -22.72825386	     48.73535441	     43.25118795	      0.00000000	      0.00000000
      5.36700000	     29.20941198	      0.87860713	      1.71885872	      0.01646504	      1.33817384	     -0.00488887	      4.54059385	     -8.38917897	    -14.62398180	     56.45290972	      0.98528915	    -14.44771263	    -21.36097816	      0.00000000	     38.11118435	      1.31154061	      4.83789253	     83.96902227	      1.46553591	    -13.40442758	    -28.58959227	      0.00000000	    -78.73372521	      6.68624961	      2.46957598	     39.16214147	     -8.85882863	    -24.73339418	     49.62883665	     49.96914162	      0.00000000	      0.00000000	     47.56136480	     15.67882534	    -22.92316057	     48.65106145	     43.38545826	      0.00000000	      0.00000000
      5.38300000	     29.36288542	      0.54560835	      1.65376627	      0.01661922	      1.33881780	     -0.00479971	      6.04949510	     -8.60596797	    -14.70373065	     60.31940484	      1.05277222	    -14.43655523	    -21.39840339	      0.00000000	     36.12681431	      0.67985164	      4.62825031	     80.45219390	      1.40415567	    -12.81891338	    -28.33955704	      0.00000000	    -78.90481404	      6.69082176	      2.79475765	     39.24185607	     -8.87734750	    -24.57442259	     49.52260046	     49.96101640	      0.00000000	      0.00000000	     47.69373753	     15.70290082	    -23.11198670	     48.57658076	     43.55870024	      0.00000000	      0.00000000
      5.40000000	     29.49451992	      0.18929251	      1.60285150	      0.01678359	      1.33945916	     -0.00494561	      7.63607874	     -8.79683704	    -14.70540551	     64.07370680	      1.11829715	    -14.36276768	    -21.47790835	      0.00000000	     34.00905261	      0.02313952	      4.38957290	     76.84981884	      1.34128237	    -12.43837023	    -27.99859454	      0.00000000	    -79.04601236	      6.78447492	      3.13694507	     39.36446047	     -8.92999217	    -24.44814457	     49.42364307	     49.95250186	      0.00000000	      0.00000000	     47.77956172	     15.66170203	    -23.32294542	     48.44772427	     43.68928850	      0.00000000	      0.00000000
      5.41700000	     29.58626349	     -0.21465666	      1.51477837	      0.01702864	      1.33987438	     -0.00493853	      9.34819327	     -8.94109194	    -14.60452055	     67.74776499	      1.18242156	    -14.12643705	    -21.31524733	      0.00000000	     31.80653945	     -0.74231091	      4.08991109	     73.23786693	      1.27824192	    -12.09561949	    -27.44674756	      0.00000000	    -79.12079961	      6.87019286	      3.54796913	     39.49955954	     -8.95662892	    -24.34509433	     49.24114984	     49.92515021	      0.00000000	      0.00000000	     47.84445951	     15.65911623	    -23.49081586	     48.31258707	     43.78672293	      0.00000000	      0.00000000
      5.43300000	     29.64827069	     -0.58555734	      1.32522847	      0.01723131	      1.34033555	     -0.00481580	     11.18878314	     -9.09896654	    -14.35215910	     71.30916804	      1.24457977	    -13.86113225	    -21.03512418	      0.00000000	     29.44520743	     -1.53357364	      3.59805159	     69.47239529	      1.21252204	    -12.02729645	    -26.90240643	      0.00000000	    -79.17040033	      6.89165526	      3.88773162	     39.64397745	     -8.90304331	    -24.21436058	     49.12301713	     49.90914717	      0.00000000	      0.00000000	     47.91756856	     15.57130064	    -23.70270075	     48.12521622	     43.87878503	      0.00000000	      0.00000000
      5.45000000	     29.73805401	     -0.75075361	      0.81500692	      0.01752723	      1.34068074	     -0.00450269	     13.19397765	     -9.40625816	    -13.63621173	     74.83590431	      1.30613293	    -13.55336927	    -20.66963292	      0.00000000	     26.87831319	     -2.24349648	      2.62420487	     65.68555783	      1.14642926	    -12.19309103	    -26.70786650	      0.00000000	    -79.23059802	      6.58682455	      4.07862531	     39.79460449	     -8.82621082	    -24.11581071	     49.02206765	     49.90018830	      0.00000000	      0.00000000	     47.96969645	     15.48127581	    -23.96909904	     47.95811854	     44.06236472	      0.00000000	      0.00000000
      5.46700000	     29.71007022	     -1.11727214	      0.66730818	      0.01783517	      1.34078766	     -0.00441307	     15.23037915	     -9.47817185	    -13.34084444	     78.08386252	      1.36282049	    -13.18861641	    -20.73272110	      0.00000000	     24.41399390	     -2.97724998	      2.13595418	     61.96539777	      1.08150021	    -12.34502338	    -25.96384240	      0.00000000	    -79.21693527	      6.66469533	      4.43570017	     39.92004933	     -8.79149980	    -24.00603967	     48.92564091	     49.90766540	      0.00000000	      0.00000000	     47.99912947	     15.41943579	    -24.15083047	     47.88675776	     44.15117329	      0.00000000	      0.00000000
